<svg width="512" height="512" viewBox="0 0 512 512" fill="none" xmlns="http://www.w3.org/2000/svg">
<rect width="512" height="512" rx="256" fill="url(#paint0_linear_1_72)"/>
<path d="M114.112 243.186C188.741 210.671 238.506 189.235 263.405 178.879C334.499 149.309 349.272 144.172 358.9 144.002C361.018 143.965 365.753 144.49 368.82 146.979C373.37 150.671 373.396 158.685 372.891 163.989C369.038 204.469 352.368 302.702 343.887 348.04C340.298 367.224 333.232 373.657 326.392 374.286C311.526 375.654 300.237 364.461 285.838 355.023C263.307 340.253 250.578 331.059 228.707 316.647C203.432 299.991 219.817 290.837 234.221 275.876C237.991 271.961 303.492 212.382 304.76 206.977C304.919 206.301 305.066 203.781 303.569 202.451C302.072 201.121 299.863 201.575 298.269 201.937C296.009 202.45 260.015 226.241 190.287 273.309C180.07 280.325 170.816 283.743 162.525 283.564C153.384 283.367 135.802 278.396 122.731 274.147C106.699 268.936 93.9574 266.18 95.0674 257.33C95.6454 252.719 101.993 248.005 114.112 243.186Z" fill-rule="evenodd" clip-rule="evenodd" fill="white"/>
<defs>
<linearGradient id="paint0_linear_1_72" x1="141" y1="90" x2="401.5" y2="512" gradientUnits="userSpaceOnUse">
<stop stop-color="#00B0FF"/>
<stop offset="1" stop-color="#0090D0"/>
</linearGradient>
</defs>
</svg>
